<svg id="EVZIP_Blue_Bg" data-name="EVZIP_Blue Bg" xmlns="http://www.w3.org/2000/svg" viewBox="0 0 360 360"><defs><style>.cls-1{fill:#151438;}.cls-2{fill:#fff;}.cls-3{fill:#6ec6ae;}</style></defs><path id="Blue_BG" data-name="Blue BG" class="cls-1" d="M267.41,342.41h-180a36,36,0,0,1-36-36v-252a36,36,0,0,1,36-36h180a36,36,0,0,1,36,36v252a36,36,0,0,1-36,36Z"/><path id="Register" class="cls-2" d="M274.11,270.79a7,7,0,0,1-2.27-1.52,7,7,0,0,1-2.09-5,7.2,7.2,0,0,1,.55-2.77,6.93,6.93,0,0,1,1.54-2.26,6.77,6.77,0,0,1,2.27-1.54,7.2,7.2,0,0,1,2.77-.55,7.29,7.29,0,0,1,2.78.55,6.83,6.83,0,0,1,2.26,1.54,6.44,6.44,0,0,1,1.52,2.26,6.87,6.87,0,0,1,.57,2.77,7,7,0,0,1-.57,2.78,6.82,6.82,0,0,1-1.52,2.26,7.09,7.09,0,0,1-2.26,1.52,7,7,0,0,1-2.78.57A6.87,6.87,0,0,1,274.11,270.79Zm-1.2-10.53a5.63,5.63,0,0,0-1.64,4,5.61,5.61,0,0,0,11.22,0,5.63,5.63,0,0,0-1.64-4,5.65,5.65,0,0,0-7.94,0Zm7,8h-1.42l-2-2.73h-.93v2.73h-1.27v-8.09h2.39a2.63,2.63,0,0,1,2,.79,3,3,0,0,1,0,3.77,2.38,2.38,0,0,1-.93.61Zm-3.27-3.87a1.49,1.49,0,0,0,1.18-.44,1.57,1.57,0,0,0,.36-1.1,1.59,1.59,0,0,0-.36-1.11,1.49,1.49,0,0,0-1.18-.43h-1.12v3.08Z"/><g id="EVZIP"><path id="E" class="cls-3" d="M96.22,287.49h18v7.68h-18V312h21.91v7.68H88.5V265.37h29.63V273H96.22Z"/><path id="V" class="cls-3" d="M146.81,301.18l13-35.81h8.39L147,322.12l-22.63-56.75h8.52Z"/><path id="Z" class="cls-2" d="M168.71,319.7l25.36-45.83H174.23v-8.5h33.62l-25.36,45.84h24.69v8.49Z"/><path id="I" class="cls-2" d="M218.09,319.7V265.37h7.72V319.7Z"/><path id="P" class="cls-2" d="M243.25,265.37h8.12c6.53,0,10.32,2.93,12.32,5.35,2.66,3.22,4,7.54,4,12.59s-1.33,9.45-4,12.6c-2,2.49-5.79,5.42-12.32,5.42h-6.92V319.7h-7.72V265.37Zm17.51,17.94c0-2.12-.4-5.19-2.2-7.39-1.59-1.91-4-2.93-7.19-2.93h-6.92v20.65h6.92q4.8,0,7.19-2.86C260.36,288.58,260.76,285.51,260.76,283.31Z"/></g><polygon id="Icon" class="cls-3" points="119.39 238.06 250.32 166.11 206.34 166.11 235.62 116.63 191.64 116.63 237.44 38.18 163.42 68.24 119.17 140.83 176.63 140.83 119.39 238.06"/></svg>
